<svg xmlns="http://www.w3.org/2000/svg" viewBox="0 0 256 256" role="img" aria-label="St Joseph's Institute of Technology logo">
  <rect width="256" height="256" fill="#fff"/>
  <circle cx="128" cy="118" r="88" fill="#fff" stroke="#111827" stroke-width="18"/>
  <path id="top" d="M48 118a80 80 0 0 1 160 0" fill="none"/>
  <text font-family="Arial, sans-serif" font-size="13" font-weight="700" fill="#fff">
    <textPath href="#top" startOffset="50%" text-anchor="middle">ST. JOSEPH'S INSTITUTE OF TECHNOLOGY</textPath>
  </text>
  <path id="bottom" d="M208 122a80 80 0 0 1-160 0" fill="none"/>
  <text font-family="Arial, sans-serif" font-size="12" font-weight="700" fill="#fff">
    <textPath href="#bottom" startOffset="50%" text-anchor="middle">OLD MAMALLAPURAM ROAD, CHENNAI - 119</textPath>
  </text>
  <circle cx="128" cy="118" r="66" fill="#fff"/>
  <path d="M78 75c11 18 2 31-6 45-7 14-5 27 8 39-2-20 13-30 17-47 4-15-2-26-19-37z" fill="#f59e0b"/>
  <path d="M89 58c20 25 13 43 1 61-7 11-8 25 5 41 1-27 30-35 25-66-2-16-13-27-31-36z" fill="#ef4444"/>
  <path d="M69 131h39l-8 50H78z" fill="#7c2d12"/>
  <path d="M112 150c14-18 31-20 49-6 11 9 23 14 37 9-18 26-68 29-86-3z" fill="#111827"/>
  <path d="M148 42a78 78 0 0 1 53 38l-24 13a50 50 0 0 0-35-25z" fill="#ef4444"/>
  <path d="M204 87a78 78 0 0 1 8 27h-27a51 51 0 0 0-5-17z" fill="#1d4ed8"/>
  <path d="M212 121a78 78 0 0 1-7 29l-25-11a49 49 0 0 0 5-18z" fill="#22c55e"/>
  <path d="M201 157a78 78 0 0 1-21 24l-17-21a52 52 0 0 0 14-15z" fill="#f59e0b"/>
  <text x="132" y="106" transform="rotate(35 132 106)" font-family="Arial, sans-serif" font-size="11" font-weight="700" fill="#111827">WE MAKE YOU SHINE</text>
  <text x="128" y="231" text-anchor="middle" font-family="Georgia, serif" font-size="20" font-style="italic" fill="#111827">We Make You Shine</text>
</svg>
